<svg width="24" height="24" viewBox="0 0 24 24" fill="none" xmlns="http://www.w3.org/2000/svg">
<g clip-path="url(#clip0_68_6227)">
<path d="M10.9922 0.26709C11.6437 0.0327148 12.3563 0.0327148 13.0125 0.26709L22.0125 3.48272C23.2031 3.90928 24 5.03896 24 6.30928V17.6905C24 18.9562 23.2031 20.0905 22.0078 20.5171L13.0078 23.7327C12.3563 23.9671 11.6437 23.9671 10.9875 23.7327L1.9875 20.5171C0.796875 20.0905 0 18.9608 0 17.6905V6.30928C0 5.04365 0.796875 3.90928 1.99219 3.48272L10.9922 0.26709ZM12 3.09365L3.85781 5.9999L12 8.90615L20.1422 5.9999L12 3.09365ZM13.5 20.3718L21 17.6952V8.88272L13.5 11.5593V20.3718Z" fill="#2563EB"/>
</g>
<defs>
<clipPath id="clip0_68_6227">
<path d="M0 0H24V24H0V0Z" fill="white"/>
</clipPath>
</defs>
</svg>
